# xmcd CD database file
#
# Track frame offsets:
#	150
#	35016
#	53244
#	63946
#	76333
#	97557
#	115842
#	137744
#	175471
#
# Disc length: 2770 seconds
#
# Revision: 0
# Processed by: cddbd v1.5.2PL0 Copyright (c) Steve Scherf et al.
# Submitted via: CDex 1.70beta3
#
DISCID=6f0ad009
DTITLE=Suga Dairo - 春風
DYEAR=2012
DGENRE=Jazz
TTITLE0=巨骸
TTITLE1=春風
TTITLE2=融合
TTITLE3=廃界
TTITLE4=深部
TTITLE5=望郷
TTITLE6=臨界
TTITLE7=再生
TTITLE8=終末
EXTD=YEAR: 2012
EXTT0=
EXTT1=
EXTT2=
EXTT3=
EXTT4=
EXTT5=
EXTT6=
EXTT7=
EXTT8=
PLAYORDER=
